<?xml version="1.0" encoding="utf-8"?>
<!-- Generator: Adobe Illustrator 25.3.1, SVG Export Plug-In . SVG Version: 6.00 Build 0)  -->
<svg version="1.1" id="Layer_1" xmlns="http://www.w3.org/2000/svg" xmlns:xlink="http://www.w3.org/1999/xlink" x="0px" y="0px"
	 viewBox="0 0 571 212" style="enable-background:new 0 0 571 212;" xml:space="preserve">
<style type="text/css">
	.st0{clip-path:url(#SVGID_2_);fill:url(#SVGID_3_);}
	.st1{clip-path:url(#SVGID_2_);fill:url(#SVGID_4_);}
	.st2{clip-path:url(#SVGID_2_);fill:url(#SVGID_5_);}
	.st3{clip-path:url(#SVGID_2_);fill:url(#SVGID_6_);}
	.st4{fill:#F9F9F9;}
	.st5{fill:#F9F9FA;}
	.st6{fill:#FFFFFF;}
</style>
<g>
	<path d="M541.24,167.04c0,12.49-10.12,22.61-22.61,22.61H52.37c-12.49,0-22.61-10.13-22.61-22.61V44.95
		c0-12.49,10.12-22.61,22.61-22.61h466.26c12.48,0,22.61,10.12,22.61,22.61V167.04z"/>
	<g id="PLAY_1_">
		<defs>
			<path id="SVGID_1_" d="M140.6,95.99l-23.06-13.32c0,0-42.02-24.26-44.49-25.69s-4.93-0.56-4.93,2.42c0,4.96,0,51.8,0,51.8
				s0,50.62,0,52.85c0,2.23,1.76,3.2,3.9,1.96c2.15-1.24,45.51-26.28,45.51-26.28l23.06-13.31c0,0,19.57-11.3,22.17-12.8
				c2.6-1.5,2.35-3.56,0.16-4.75C160.73,107.7,140.6,95.99,140.6,95.99z"/>
		</defs>
		<clipPath id="SVGID_2_">
			<use xlink:href="#SVGID_1_"  style="overflow:visible;"/>
		</clipPath>
		<linearGradient id="SVGID_3_" gradientUnits="userSpaceOnUse" x1="96.6917" y1="54.5552" x2="96.6917" y2="167.858">
			<stop  offset="0" style="stop-color:#257CB0"/>
			<stop  offset="0.2863" style="stop-color:#4A93B5"/>
			<stop  offset="0.767" style="stop-color:#78BCBB"/>
			<stop  offset="1" style="stop-color:#89CFBD"/>
		</linearGradient>
		<polygon class="st0" points="68.12,54.56 68.12,111.21 68.12,167.86 125.26,111.21 		"/>
		<linearGradient id="SVGID_4_" gradientUnits="userSpaceOnUse" x1="68.1248" y1="82.6753" x2="140.6043" y2="82.6753">
			<stop  offset="0" style="stop-color:#52C1AD"/>
			<stop  offset="1" style="stop-color:#DEE89A"/>
		</linearGradient>
		<polygon class="st1" points="140.6,95.99 117.54,82.68 68.12,54.14 68.12,54.56 125.26,111.21 		"/>
		<linearGradient id="SVGID_5_" gradientUnits="userSpaceOnUse" x1="104.3641" y1="111.2076" x2="104.3641" y2="168.2701">
			<stop  offset="0" style="stop-color:#EC413D"/>
			<stop  offset="0.1668" style="stop-color:#DA4452"/>
			<stop  offset="0.5748" style="stop-color:#B0487A"/>
			<stop  offset="0.8619" style="stop-color:#954A92"/>
			<stop  offset="1" style="stop-color:#8A4A9D"/>
		</linearGradient>
		<polygon class="st2" points="68.12,167.86 68.12,168.27 117.54,139.74 140.6,126.42 125.26,111.21 		"/>
		<linearGradient id="SVGID_6_" gradientUnits="userSpaceOnUse" x1="146.1094" y1="95.9908" x2="146.1094" y2="126.4223">
			<stop  offset="0" style="stop-color:#F58879"/>
			<stop  offset="0.1194" style="stop-color:#F69079"/>
			<stop  offset="0.7128" style="stop-color:#FCB877"/>
			<stop  offset="1" style="stop-color:#FEC874"/>
		</linearGradient>
		<polygon class="st3" points="140.6,95.99 125.26,111.21 140.6,126.42 166.96,111.21 		"/>
	</g>
	<g>
		<path class="st4" d="M427.82,133.36c-2.15,0-4.1-0.4-5.88-1.19c-1.77-0.79-3.26-2.01-4.47-3.65h-0.36
			c0.24,1.92,0.36,3.75,0.36,5.47v13.56h-4.99V99.8h4.06l0.69,4.51h0.24c1.28-1.8,2.78-3.11,4.48-3.91c1.7-0.8,3.66-1.2,5.86-1.2
			c4.37,0,7.74,1.49,10.12,4.48c2.38,2.99,3.56,7.18,3.56,12.57c0,5.41-1.21,9.62-3.62,12.61
			C435.46,131.86,432.11,133.36,427.82,133.36z M427.1,103.44c-3.37,0-5.8,0.93-7.3,2.8c-1.5,1.86-2.28,4.83-2.32,8.9v1.11
			c0,4.63,0.77,7.94,2.32,9.94c1.54,1.99,4.02,2.99,7.42,2.99c2.85,0,5.08-1.15,6.69-3.46c1.61-2.3,2.42-5.48,2.42-9.53
			c0-4.11-0.81-7.26-2.42-9.46C432.29,104.54,430.02,103.44,427.1,103.44z"/>
		<path class="st4" d="M453.05,132.75h-4.99V85.97h4.99V132.75z"/>
		<path class="st4" d="M481.75,132.75l-0.99-4.69h-0.24c-1.64,2.07-3.28,3.46-4.92,4.19c-1.63,0.73-3.67,1.1-6.12,1.1
			c-3.27,0-5.83-0.84-7.68-2.53c-1.85-1.68-2.78-4.08-2.78-7.18c0-6.65,5.32-10.14,15.96-10.46l5.59-0.18v-2.04
			c0-2.59-0.56-4.5-1.67-5.73c-1.11-1.23-2.89-1.85-5.34-1.85c-2.75,0-5.85,0.84-9.32,2.53l-1.53-3.82c1.62-0.88,3.4-1.57,5.34-2.07
			c1.93-0.5,3.87-0.75,5.82-0.75c3.93,0,6.84,0.87,8.73,2.62c1.89,1.74,2.84,4.54,2.84,8.39v22.49H481.75z M470.47,129.24
			c3.11,0,5.54-0.85,7.32-2.55c1.77-1.7,2.66-4.09,2.66-7.16v-2.98l-4.99,0.21c-3.97,0.14-6.83,0.76-8.58,1.85
			c-1.75,1.09-2.63,2.79-2.63,5.1c0,1.8,0.54,3.18,1.64,4.12C466.98,128.77,468.51,129.24,470.47,129.24z"/>
		<path class="st4" d="M488.34,99.8h5.35l7.22,18.79c1.58,4.29,2.57,7.39,2.95,9.29h0.24c0.26-1.02,0.81-2.77,1.64-5.25
			c0.83-2.48,3.55-10.08,8.16-22.83h5.35l-14.16,37.52c-1.4,3.71-3.04,6.34-4.92,7.89c-1.87,1.55-4.17,2.33-6.9,2.33
			c-1.52,0-3.03-0.17-4.51-0.51v-4c1.1,0.24,2.34,0.36,3.7,0.36c3.43,0,5.87-1.92,7.34-5.77l1.83-4.69L488.34,99.8z"/>
	</g>
	<g>
		<path class="st4" d="M335.37,102.86c1.58,1.31,4.89,4.07,4.89,9.31c0,5.1-2.89,7.51-5.79,9.79c-0.9,0.89-1.93,1.86-1.93,3.38
			c0,1.51,1.03,2.34,1.79,2.96l2.48,1.93c3.03,2.55,5.79,4.9,5.79,9.65c0,6.48-6.27,13.02-18.12,13.02c-10,0-14.82-4.75-14.82-9.86
			c0-2.48,1.24-5.99,5.31-8.41c4.27-2.62,10.06-2.96,13.16-3.17c-0.97-1.24-2.07-2.55-2.07-4.68c0-1.17,0.35-1.86,0.69-2.69
			c-0.76,0.07-1.52,0.14-2.21,0.14c-7.3,0-11.44-5.45-11.44-10.82c0-3.17,1.45-6.69,4.41-9.24c3.93-3.24,8.62-3.79,12.34-3.79h14.19
			l-4.41,2.48H335.37z M330.47,133.47c-0.55-0.07-0.9-0.07-1.58-0.07c-0.62,0-4.35,0.14-7.24,1.11c-1.52,0.55-5.93,2.2-5.93,7.1
			c0,4.89,4.76,8.41,12.13,8.41c6.61,0,10.13-3.18,10.13-7.45C337.99,139.04,335.71,137.19,330.47,133.47z M332.47,120.37
			c1.58-1.59,1.72-3.79,1.72-5.03c0-4.96-2.96-12.68-8.68-12.68c-1.79,0-3.72,0.89-4.83,2.28c-1.17,1.45-1.52,3.31-1.52,5.1
			c0,4.62,2.69,12.27,8.62,12.27C329.51,122.3,331.37,121.47,332.47,120.37z"/>
		<path class="st4" d="M291.98,132.36c-10.94,0-16.79-8.53-16.79-16.24c0-9.01,7.36-16.72,17.82-16.72
			c10.11,0,16.44,7.91,16.44,16.24C309.46,123.76,303.2,132.36,291.98,132.36z M300.58,126.79c1.65-2.2,2.07-4.96,2.07-7.64
			c0-6.06-2.89-17.62-11.42-17.62c-2.27,0-4.54,0.9-6.19,2.34c-2.68,2.41-3.17,5.43-3.17,8.4c0,6.81,3.37,18.02,11.7,18.02
			C296.25,130.3,299,128.99,300.58,126.79z"/>
		<path class="st4" d="M254.69,132.36c-10.94,0-16.79-8.53-16.79-16.24c0-9.01,7.36-16.72,17.82-16.72
			c10.11,0,16.44,7.91,16.44,16.24C272.16,123.76,265.9,132.36,254.69,132.36z M263.29,126.79c1.65-2.2,2.07-4.96,2.07-7.64
			c0-6.06-2.89-17.62-11.42-17.62c-2.27,0-4.54,0.9-6.19,2.34c-2.68,2.41-3.17,5.43-3.17,8.4c0,6.81,3.37,18.02,11.7,18.02
			C258.95,130.3,261.7,128.99,263.29,126.79z"/>
		<path class="st4" d="M232.64,131.29l-9.89,2.28c-4.01,0.62-7.61,1.17-11.41,1.17c-19.1,0-26.36-14.04-26.36-25.04
			c0-13.42,10.31-25.87,27.95-25.87c3.74,0,7.33,0.55,10.58,1.45c5.19,1.45,7.61,3.25,9.13,4.29l-5.74,5.46l-2.42,0.55l1.73-2.77
			c-2.35-2.28-6.64-6.5-14.8-6.5c-10.93,0-19.16,8.3-19.16,20.41c0,13,9.41,25.25,24.49,25.25c4.43,0,6.71-0.9,8.79-1.73v-11.14
			l-10.44,0.55l5.53-2.98h14.67l-1.8,1.73c-0.49,0.42-0.55,0.56-0.69,1.11c-0.07,0.62-0.14,2.63-0.14,3.32V131.29z"/>
		<path class="st4" d="M357.23,129.29c-2.28-0.21-2.76-0.62-2.76-3.32v-0.76V86.82c0.01-0.15,0.02-0.3,0.04-0.45
			c0.28-2.42,0.97-2.83,3.12-4.08h-9.9l-5.19,2.49h5.29v0.03l0-0.03v40.42v2.29c0,1.38-0.27,1.59-1.87,3.66h12.25l2.56-1.52
			C359.59,129.5,358.41,129.43,357.23,129.29z"/>
		<path class="st4" d="M385.38,129.93c-0.75,0.41-1.51,0.9-2.26,1.24c-2.27,1.03-4.61,1.31-6.67,1.31c-2.19,0-5.63-0.14-9.14-2.68
			c-4.87-3.44-7-9.35-7-14.5c0-10.65,8.66-15.87,15.73-15.87c2.47,0,5.02,0.62,7.08,1.92c3.43,2.26,4.33,5.22,4.8,6.8l-16.14,6.53
			l-5.29,0.41c1.71,8.72,7.62,13.8,14.15,13.8c3.5,0,6.05-1.23,8.38-2.4L385.38,129.93z M378.93,109.45
			c1.3-0.48,1.99-0.89,1.99-1.85c0-2.75-3.09-5.91-6.8-5.91c-2.75,0-7.9,2.13-7.9,9.55c0,1.17,0.14,2.4,0.21,3.64L378.93,109.45z"/>
		<g>
			<path class="st4" d="M392.02,99.9v4.53h-0.55V99.9h-1.5v-0.47h3.55v0.47H392.02z"/>
			<path class="st4" d="M398.2,104.43v-4.58h-0.03l-1.4,4.58h-0.43l-1.41-4.58h-0.02v4.58h-0.5v-5h0.86l1.27,4.04h0.02l1.25-4.04
				h0.87v5H398.2z"/>
		</g>
	</g>
	<g>
		<path class="st5" d="M198.71,70.36h-3.44c0-0.47-0.33-1.81-0.98-4.02h-4.96c-0.67,2.17-1.01,3.51-1.01,4.02h-3.23
			c0-0.28,0.84-2.57,2.51-6.87c1.67-4.3,2.51-6.67,2.51-7.11h4.06c0,0.41,0.76,2.74,2.27,7.01
			C197.96,67.65,198.71,69.97,198.71,70.36z M193.75,64.29c-1.22-3.7-1.84-5.69-1.84-5.99h-0.17c0,0.28-0.63,2.28-1.9,5.99H193.75z"
			/>
		<path class="st5" d="M212.57,70.36h-2.65c0-0.29-0.98-1.84-2.95-4.65c-2.06-2.96-3.24-4.98-3.52-6.07h-0.17
			c0.18,1.57,0.27,2.99,0.27,4.25c0,1.77,0.05,3.92,0.15,6.47h-2.64c0.11-2.22,0.16-4.66,0.16-7.32c0-2.61-0.05-4.84-0.16-6.67h3.19
			c0,0.38,0.88,1.89,2.65,4.54c1.88,2.81,2.96,4.72,3.24,5.73h0.16c-0.17-1.6-0.26-3.03-0.26-4.3c0-1.94-0.05-3.93-0.15-5.97h2.69
			c-0.1,1.78-0.15,4-0.15,6.67C212.42,65.74,212.47,68.17,212.57,70.36z"/>
		<path class="st5" d="M228.14,62.88c0,2.03-0.65,3.81-1.96,5.33c-1.3,1.52-3.13,2.28-5.48,2.28c-1.06,0-2.52-0.04-4.38-0.13
			c0.09-2.16,0.14-4.6,0.14-7.32c0-2.61-0.05-4.83-0.14-6.67h1.88c0.31,0,0.77-0.01,1.38-0.03c0.61-0.02,1.01-0.03,1.19-0.03
			c2.58,0,4.46,0.64,5.62,1.93C227.55,59.53,228.14,61.08,228.14,62.88z M225.2,63.34c0-1.38-0.4-2.53-1.2-3.48
			c-0.8-0.94-2.03-1.41-3.67-1.41c-0.31,0-0.73,0.03-1.27,0.1c0.07,1.43,0.11,2.93,0.11,4.49c0,1.71,0.04,3.41,0.11,5.09
			c0.47,0.09,0.93,0.14,1.4,0.14c1.54,0,2.68-0.48,3.42-1.43C224.83,65.88,225.2,64.72,225.2,63.34z"/>
		<path class="st5" d="M242.49,70.36h-3.18c-0.83-2.54-1.47-4.1-1.91-4.69c-0.44-0.59-1.16-0.89-2.15-0.89c-0.42,0-0.81,0-1.19,0.01
			c0,1.84,0.03,3.7,0.1,5.58h-2.99c0.09-2.16,0.14-4.6,0.14-7.32c0-2.61-0.05-4.83-0.14-6.67h1.86c0.21,0,0.66-0.01,1.35-0.03
			c0.68-0.02,1.32-0.03,1.9-0.03c3.29,0,4.93,1.12,4.93,3.37c0,1.78-0.94,3.03-2.81,3.73v0.16c0.72,0.2,1.36,0.76,1.9,1.69
			C240.83,66.19,241.57,67.89,242.49,70.36z M238.46,60.48c0-1.42-0.92-2.14-2.75-2.14c-0.67,0-1.27,0.05-1.78,0.15
			c0.08,1.11,0.12,2.56,0.12,4.34c0.39,0.01,0.73,0.02,1,0.02C237.32,62.85,238.46,62.06,238.46,60.48z"/>
		<path class="st5" d="M257.89,63.11c0,2.2-0.67,4.02-2.02,5.47c-1.35,1.45-3.01,2.17-5,2.17c-1.89,0-3.47-0.66-4.75-1.99
			c-1.27-1.33-1.91-3.02-1.91-5.06c0-2.2,0.67-4.02,2.02-5.47c1.35-1.45,3.01-2.17,5-2.17c1.89,0,3.47,0.66,4.75,1.99
			C257.25,59.36,257.89,61.05,257.89,63.11z M254.93,63.42c0-1.5-0.38-2.71-1.15-3.64c-0.77-0.93-1.71-1.4-2.84-1.4
			c-1.05,0-1.93,0.47-2.66,1.41c-0.73,0.94-1.1,2.12-1.1,3.56c0,1.49,0.38,2.7,1.15,3.64c0.77,0.93,1.71,1.4,2.83,1.4
			c1.05,0,1.93-0.47,2.66-1.41C254.56,66.03,254.93,64.84,254.93,63.42z"/>
		<path class="st5" d="M263.96,70.36h-3.04c0.09-2.22,0.14-4.66,0.14-7.32c0-2.61-0.05-4.84-0.14-6.67h3.04
			c-0.09,1.8-0.14,4.03-0.14,6.67C263.82,65.74,263.87,68.18,263.96,70.36z"/>
		<path class="st5" d="M279.53,62.88c0,2.03-0.65,3.81-1.96,5.33c-1.3,1.52-3.13,2.28-5.48,2.28c-1.06,0-2.52-0.04-4.38-0.13
			c0.09-2.16,0.14-4.6,0.14-7.32c0-2.61-0.05-4.83-0.14-6.67h1.88c0.31,0,0.77-0.01,1.38-0.03c0.61-0.02,1.01-0.03,1.19-0.03
			c2.58,0,4.46,0.64,5.62,1.93C278.95,59.53,279.53,61.08,279.53,62.88z M276.6,63.34c0-1.38-0.4-2.53-1.2-3.48
			c-0.8-0.94-2.03-1.41-3.67-1.41c-0.31,0-0.73,0.03-1.27,0.1c0.07,1.43,0.11,2.93,0.11,4.49c0,1.71,0.04,3.41,0.11,5.09
			c0.47,0.09,0.93,0.14,1.4,0.14c1.54,0,2.68-0.48,3.42-1.43C276.23,65.88,276.6,64.72,276.6,63.34z"/>
		<path class="st5" d="M300.19,70.36h-3.44c0-0.47-0.33-1.81-0.98-4.02h-4.96c-0.67,2.17-1.01,3.51-1.01,4.02h-3.23
			c0-0.28,0.84-2.57,2.51-6.87c1.67-4.3,2.51-6.67,2.51-7.11h4.06c0,0.41,0.76,2.74,2.27,7.01
			C299.43,67.65,300.19,69.97,300.19,70.36z M295.23,64.29c-1.22-3.7-1.84-5.69-1.84-5.99h-0.17c0,0.28-0.63,2.28-1.9,5.99H295.23z"
			/>
		<path class="st5" d="M312.72,60.04c0,1.71-0.64,2.98-1.91,3.79c-1.27,0.82-2.83,1.22-4.68,1.22c-0.34,0-0.58-0.01-0.72-0.02
			c0,1.35,0.04,3.12,0.12,5.33h-3.02c0.09-2.07,0.14-4.51,0.14-7.32c0-2.58-0.05-4.8-0.14-6.67h1.87c0.26,0,0.77-0.01,1.53-0.03
			c0.75-0.02,1.4-0.03,1.96-0.03c1.36,0,2.51,0.31,3.45,0.92C312.25,57.85,312.72,58.78,312.72,60.04z M309.95,60.63
			c0-1.53-1.02-2.3-3.05-2.3c-0.51,0-1.05,0.05-1.61,0.16c0.08,1.35,0.12,2.89,0.12,4.6c0.18,0.01,0.39,0.02,0.62,0.02
			C308.64,63.11,309.95,62.28,309.95,60.63z"/>
		<path class="st5" d="M325.6,60.04c0,1.71-0.64,2.98-1.91,3.79c-1.27,0.82-2.83,1.22-4.68,1.22c-0.34,0-0.58-0.01-0.72-0.02
			c0,1.35,0.04,3.12,0.12,5.33h-3.02c0.09-2.07,0.14-4.51,0.14-7.32c0-2.58-0.05-4.8-0.14-6.67h1.87c0.26,0,0.77-0.01,1.53-0.03
			c0.75-0.02,1.4-0.03,1.96-0.03c1.36,0,2.51,0.31,3.45,0.92C325.14,57.85,325.6,58.78,325.6,60.04z M322.83,60.63
			c0-1.53-1.02-2.3-3.05-2.3c-0.51,0-1.05,0.05-1.61,0.16c0.08,1.35,0.12,2.89,0.12,4.6c0.18,0.01,0.39,0.02,0.62,0.02
			C321.53,63.11,322.83,62.28,322.83,60.63z"/>
		<path class="st5" d="M346.67,63.11c0,2.2-0.67,4.02-2.02,5.47c-1.35,1.45-3.01,2.17-5,2.17c-1.89,0-3.47-0.66-4.75-1.99
			c-1.27-1.33-1.91-3.02-1.91-5.06c0-2.2,0.67-4.02,2.02-5.47c1.35-1.45,3.01-2.17,5-2.17c1.89,0,3.47,0.66,4.75,1.99
			C346.03,59.36,346.67,61.05,346.67,63.11z M343.7,63.42c0-1.5-0.38-2.71-1.15-3.64c-0.77-0.93-1.71-1.4-2.84-1.4
			c-1.05,0-1.93,0.47-2.66,1.41c-0.73,0.94-1.1,2.12-1.1,3.56c0,1.49,0.38,2.7,1.16,3.64c0.77,0.93,1.71,1.4,2.83,1.4
			c1.05,0,1.93-0.47,2.66-1.41C343.34,66.03,343.7,64.84,343.7,63.42z"/>
		<path class="st5" d="M361.23,70.36h-2.65c0-0.29-0.98-1.84-2.95-4.65c-2.06-2.96-3.24-4.98-3.52-6.07h-0.17
			c0.18,1.57,0.27,2.99,0.27,4.25c0,1.77,0.05,3.92,0.15,6.47h-2.64c0.11-2.22,0.16-4.66,0.16-7.32c0-2.61-0.05-4.84-0.16-6.67h3.19
			c0,0.38,0.88,1.89,2.65,4.54c1.88,2.81,2.96,4.72,3.24,5.73h0.16c-0.17-1.6-0.26-3.03-0.26-4.3c0-1.94-0.05-3.93-0.15-5.97h2.69
			c-0.1,1.78-0.15,4-0.15,6.67C361.08,65.74,361.13,68.17,361.23,70.36z"/>
	</g>
</g>
</svg>
