<?xml version="1.0" encoding="utf-8"?>
<!-- Generator: Adobe Illustrator 25.3.1, SVG Export Plug-In . SVG Version: 6.00 Build 0)  -->
<svg version="1.1" id="Layer_1" xmlns="http://www.w3.org/2000/svg" xmlns:xlink="http://www.w3.org/1999/xlink" x="0px" y="0px"
	 viewBox="0 0 571 212" style="enable-background:new 0 0 571 212;" xml:space="preserve">
<style type="text/css">
	.st0{clip-path:url(#SVGID_2_);fill:url(#SVGID_3_);}
	.st1{clip-path:url(#SVGID_2_);fill:url(#SVGID_4_);}
	.st2{clip-path:url(#SVGID_2_);fill:url(#SVGID_5_);}
	.st3{clip-path:url(#SVGID_2_);fill:url(#SVGID_6_);}
	.st4{fill:#F9F9F9;}
	.st5{fill:#F9F9FA;}
	.st6{fill:#FFFFFF;}
</style>
<g>
	<path d="M545.58,172.64c0,12.74-10.32,23.06-23.06,23.06H46.93c-12.74,0-23.06-10.33-23.06-23.06V48.11
		c0-12.73,10.33-23.06,23.06-23.06h475.59c12.73,0,23.06,10.33,23.06,23.06V172.64z"/>
	<g>
		<path class="st6" d="M159.92,137.85c-2.76,6.12-4.08,8.85-7.64,14.26c-4.96,7.55-11.96,16.96-20.62,17.04
			c-7.7,0.07-9.68-5.01-20.13-4.95c-10.45,0.06-12.63,5.04-20.33,4.97c-8.66-0.08-15.29-8.57-20.25-16.13
			c-13.88-21.12-15.32-45.91-6.77-59.08c6.08-9.37,15.67-14.85,24.69-14.85c9.18,0,14.96,5.04,22.55,5.04
			c7.37,0,11.86-5.04,22.47-5.04c8.03,0,16.53,4.37,22.59,11.93C136.63,101.92,139.86,130.27,159.92,137.85z"/>
		<g>
			<path class="st6" d="M125.84,70.67c3.86-4.95,6.79-11.95,5.72-19.09c-6.3,0.43-13.67,4.44-17.98,9.67
				c-3.91,4.75-7.13,11.78-5.88,18.62C114.59,80.09,121.71,75.98,125.84,70.67z"/>
		</g>
	</g>
	<g>
		<g>
			<path class="st6" d="M202.18,93.64l-19.88,58.5h9.1l5.93-17.96h19.24l6.1,17.96h9.35l-19.96-58.5H202.18z M206.9,103.26
				c0.67,2.61,1.4,5.32,2.33,8.25l5.36,15.51h-15.24l5.28-15.61C205.43,108.88,206.19,106.15,206.9,103.26z"/>
			<path class="st6" d="M257.76,108.81c-6.03,0-10.86,2.33-14.07,6.75l-0.35-5.82h-8.1l0.05,0.74c0.24,3.62,0.34,7.62,0.34,13.34
				v45.09h8.85v-21.04c2.75,3.29,7.13,5.2,12.1,5.2c5.17,0,9.94-2.03,13.41-5.7c3.88-4.1,5.92-9.99,5.92-17.03
				c0-6.22-1.78-11.6-5.14-15.55C267.48,110.94,262.86,108.81,257.76,108.81z M255.56,116.14c7.89,0,11.42,7.31,11.42,14.55
				c0,9.34-4.51,15.15-11.76,15.15c-4.95,0-9.23-3.37-10.43-8.21c-0.21-0.75-0.31-1.74-0.31-2.87v-7.12c0-0.64,0.14-1.43,0.28-2.18
				c0.04-0.24,0.09-0.48,0.13-0.72C246.21,119.67,250.59,116.14,255.56,116.14z"/>
			<path class="st6" d="M303.34,108.81c-6.03,0-10.86,2.33-14.07,6.75l-0.35-5.82h-8.09l0.04,0.74c0.24,3.63,0.34,7.62,0.34,13.34
				v45.09h8.85v-21.04c2.75,3.29,7.13,5.2,12.1,5.2c5.17,0,9.94-2.03,13.42-5.7c3.87-4.1,5.92-9.99,5.92-17.03
				c0-6.22-1.78-11.6-5.15-15.55C313.06,110.94,308.44,108.81,303.34,108.81z M301.14,116.14c7.89,0,11.42,7.31,11.42,14.55
				c0,9.34-4.51,15.15-11.76,15.15c-4.95,0-9.24-3.37-10.43-8.21c-0.21-0.75-0.31-1.74-0.31-2.87v-7.12c0-0.65,0.14-1.43,0.28-2.19
				c0.04-0.24,0.09-0.48,0.13-0.71C291.79,119.67,296.17,116.14,301.14,116.14z"/>
			<path class="st6" d="M360.45,118.43c-8.26-3.2-10.91-5.71-10.91-10.36c0-3.91,3.11-7.86,10.06-7.86c5.73,0,9.4,1.99,10.39,2.61
				l0.75,0.46l2.5-7.39l-0.49-0.29c-1.48-0.87-5.71-2.89-12.89-2.89c-11.29,0-19.17,6.66-19.17,16.2c0,7.69,4.94,13.07,15.54,16.92
				c7.51,2.81,10.31,5.68,10.31,10.61c0,5.58-4.31,9.04-11.25,9.04c-4.52,0-9.17-1.32-12.76-3.62l-0.77-0.49l-2.38,7.56l0.44,0.29
				c3.34,2.23,9.63,3.85,14.96,3.85c15.21,0,20.61-9.28,20.61-17.22C375.38,127.67,371.05,122.62,360.45,118.43z"/>
			<path class="st6" d="M391.31,99.66l-8.68,2.73v7.35h-6.36v7.07h6.36v21.67c0,5.24,1,8.91,3.06,11.23
				c1.98,2.17,5.02,3.36,8.56,3.36c3.35,0,5.72-0.66,6.84-1.06l0.5-0.18l-0.42-7.09l-0.85,0.26c-1.12,0.34-2.27,0.48-4.12,0.48
				c-3.43,0-4.89-2.17-4.89-7.26v-21.42h10.68v-7.07h-10.68V99.66z"/>
			<path class="st6" d="M423.92,108.81c-12.38,0-21.03,9.24-21.03,22.47c0,12.83,8.37,21.8,20.36,21.8h0.08
				c10.13,0,21.03-7.06,21.03-22.56c0-6.3-1.95-11.71-5.64-15.66C435.01,110.91,429.89,108.81,423.92,108.81z M423.67,115.8
				c7.96,0,11.59,7.76,11.59,14.98c0,8.87-4.95,15.31-11.76,15.31h-0.09c-6.71,0-11.59-6.33-11.59-15.06
				C411.83,123.45,415.49,115.8,423.67,115.8z"/>
			<path class="st6" d="M471.47,109.22l-0.53-0.13c-0.78-0.19-1.42-0.28-2.2-0.28c-4.63,0-8.79,2.73-11.1,7.13l-0.26-6.19h-7.94
				l0.05,0.74c0.24,3.5,0.33,7.44,0.33,12.75l-0.08,28.92h8.85v-22.56c0-1.23,0.08-2.39,0.24-3.43c1-5.42,4.65-8.92,9.31-8.92
				c0.91,0,1.62,0.07,2.38,0.15l0.95,0.1V109.22z"/>
			<path class="st6" d="M491.37,108.73c-11.78,0-20.01,9.42-20.01,22.9c0,12.98,8.19,21.37,20.86,21.37c6.66,0,11.3-1.46,14.01-2.69
				l0.53-0.24l-1.7-6.6l-0.74,0.3c-2.41,0.98-5.62,1.98-11.09,1.98c-3.85,0-12.71-1.27-13.26-12.83l28.57,0.09l0.12-0.57
				c0.18-0.9,0.27-2.11,0.27-3.69C508.93,119.51,504.33,108.73,491.37,108.73z M490.78,115.46c2.7,0,4.88,0.83,6.5,2.48
				c2.55,2.59,2.99,6.41,3.05,8.24h-20.19C480.96,121.07,484.16,115.46,490.78,115.46z"/>
		</g>
		<g>
			<path class="st6" d="M182.31,53.68c2.47-0.33,5.34-0.57,8.49-0.57c5.71,0,9.77,1.15,12.46,3.41c2.78,2.26,4.38,5.5,4.38,9.98
				c0,4.52-1.6,8.21-4.43,10.76c-2.92,2.59-7.67,3.99-13.65,3.99c-2.88,0-5.2-0.08-7.26-0.33V53.68z M186.33,78.21
				c1,0.16,2.46,0.16,4.02,0.16c8.49,0.04,13.1-4.27,13.1-11.75c0.05-6.61-4.06-10.68-12.46-10.68c-2.05,0-3.61,0.17-4.66,0.37
				V78.21z"/>
			<path class="st6" d="M221.88,81.45c-5.94,0-10.59-3.94-10.59-10.23c0-6.66,4.88-10.56,10.95-10.56c6.35,0,10.64,4.15,10.64,10.19
				c0,7.39-5.71,10.6-10.95,10.6H221.88z M222.02,78.74c3.83,0,6.71-3.25,6.71-7.76c0-3.37-1.87-7.6-6.62-7.6
				c-4.7,0-6.76,3.94-6.76,7.72c0,4.35,2.74,7.64,6.62,7.64H222.02z"/>
			<path class="st6" d="M239.24,61.11l2.97,10.07c0.59,2.22,1.19,4.31,1.6,6.37h0.14c0.5-2.01,1.23-4.15,1.96-6.33l3.61-10.11h3.38
				l3.42,9.94c0.82,2.34,1.46,4.48,1.96,6.49h0.14c0.37-2.01,0.96-4.11,1.69-6.45l3.15-9.98h3.97L260.1,81h-3.65l-3.38-9.49
				c-0.78-2.26-1.42-4.23-1.96-6.57h-0.09c-0.55,2.38-1.23,4.48-2.01,6.61L245.45,81h-3.65l-6.67-19.88H239.24z"/>
			<path class="st6" d="M271.24,66.5c0-2.1-0.05-3.74-0.18-5.38h3.56l0.23,3.25h0.09c1.1-1.85,3.65-3.7,7.3-3.7
				c3.06,0,7.81,1.64,7.81,8.46V81h-4.01V69.54c0-3.2-1.33-5.91-5.11-5.91c-2.6,0-4.66,1.68-5.39,3.7
				c-0.18,0.45-0.27,1.11-0.27,1.68v12h-4.02V66.5z"/>
			<path class="st6" d="M296.57,51.83h4.02V81h-4.02V51.83z"/>
			<path class="st6" d="M316.25,81.45c-5.93,0-10.59-3.94-10.59-10.23c0-6.66,4.88-10.56,10.96-10.56c6.34,0,10.63,4.15,10.63,10.19
				c0,7.39-5.71,10.6-10.96,10.6H316.25z M316.38,78.74c3.83,0,6.71-3.25,6.71-7.76c0-3.37-1.87-7.6-6.62-7.6
				c-4.7,0-6.76,3.94-6.76,7.72c0,4.35,2.74,7.64,6.62,7.64H316.38z"/>
			<path class="st6" d="M347.88,76.23c0,1.72,0.09,3.41,0.32,4.76h-3.61l-0.37-2.5h-0.13c-1.19,1.56-3.61,2.96-6.76,2.96
				c-4.47,0-6.76-2.83-6.76-5.71c0-4.81,4.75-7.44,13.28-7.39v-0.41c0-1.64-0.5-4.64-5.02-4.6c-2.1,0-4.25,0.53-5.8,1.48l-0.91-2.42
				c1.83-1.03,4.52-1.73,7.3-1.73c6.8,0,8.44,4.15,8.44,8.13V76.23z M343.96,70.85c-4.38-0.08-9.36,0.62-9.36,4.48
				c0,2.38,1.73,3.45,3.74,3.45c2.92,0,4.79-1.64,5.43-3.33c0.14-0.37,0.18-0.78,0.18-1.15V70.85z"/>
			<path class="st6" d="M373.4,51.83v24.03c0,1.77,0.05,3.78,0.18,5.14h-3.61l-0.18-3.45h-0.09c-1.23,2.22-3.88,3.9-7.49,3.9
				c-5.34,0-9.5-4.07-9.5-10.11c-0.05-6.66,4.57-10.68,9.91-10.68c3.43,0,5.71,1.44,6.67,3h0.09V51.83H373.4z M369.39,69.21
				c0-0.49-0.04-1.07-0.18-1.56c-0.59-2.26-2.78-4.15-5.8-4.15c-4.15,0-6.62,3.29-6.62,7.64c0,4.07,2.24,7.39,6.53,7.39
				c2.69,0,5.16-1.64,5.89-4.31c0.14-0.49,0.18-0.99,0.18-1.56V69.21z"/>
			<path class="st6" d="M398.74,81.45c-5.93,0-10.59-3.94-10.59-10.23c0-6.66,4.89-10.56,10.96-10.56c6.35,0,10.64,4.15,10.64,10.19
				c0,7.39-5.71,10.6-10.95,10.6H398.74z M398.88,78.74c3.83,0,6.71-3.25,6.71-7.76c0-3.37-1.87-7.6-6.62-7.6
				c-4.7,0-6.76,3.94-6.76,7.72c0,4.35,2.74,7.64,6.62,7.64H398.88z"/>
			<path class="st6" d="M414.81,66.5c0-2.1-0.05-3.74-0.18-5.38h3.56l0.23,3.25h0.09c1.1-1.85,3.65-3.7,7.3-3.7
				c3.06,0,7.81,1.64,7.81,8.46V81h-4.02V69.54c0-3.2-1.32-5.91-5.11-5.91c-2.6,0-4.66,1.68-5.39,3.7
				c-0.18,0.45-0.27,1.11-0.27,1.68v12h-4.02V66.5z"/>
			<path class="st6" d="M454.66,56.35v4.76h5.75v2.75h-5.75v10.72c0,2.46,0.78,3.86,3.01,3.86c1.09,0,1.73-0.08,2.33-0.25l0.18,2.75
				c-0.78,0.25-2.01,0.49-3.56,0.49c-1.87,0-3.38-0.58-4.34-1.52c-1.1-1.11-1.55-2.88-1.55-5.22V63.87h-3.42v-2.75h3.42v-3.66
				L454.66,56.35z"/>
			<path class="st6" d="M464.93,51.83h4.02v12.41h0.09c0.64-1.03,1.64-1.97,2.88-2.55c1.19-0.66,2.6-1.03,4.11-1.03
				c2.96,0,7.71,1.64,7.71,8.5V81h-4.02V69.58c0-3.25-1.32-5.92-5.11-5.92c-2.6,0-4.61,1.64-5.39,3.62
				c-0.23,0.49-0.28,1.03-0.28,1.73v12h-4.02V51.83z"/>
			<path class="st6" d="M492.55,71.67c0.09,4.89,3.52,6.9,7.53,6.9c2.88,0,4.66-0.45,6.12-0.99l0.73,2.55
				c-1.42,0.58-3.88,1.27-7.4,1.27c-6.76,0-10.87-4.07-10.87-10.02c0-6.04,3.97-10.76,10.41-10.76c7.21,0,9.08,5.71,9.08,9.37
				c0,0.74-0.04,1.31-0.13,1.72L492.55,71.67z M504.28,69.09c0.04-2.26-1.05-5.87-5.53-5.87c-4.11,0-5.84,3.37-6.16,5.87H504.28z"/>
		</g>
	</g>
</g>
</svg>
