<?xml version="1.0" encoding="utf-8"?>
<!-- Generator: Adobe Illustrator 25.3.1, SVG Export Plug-In . SVG Version: 6.00 Build 0)  -->
<svg version="1.1" id="Capa_1" xmlns="http://www.w3.org/2000/svg" xmlns:xlink="http://www.w3.org/1999/xlink" x="0px" y="0px"
	 viewBox="0 0 49.3 14.1" style="enable-background:new 0 0 49.3 14.1;" xml:space="preserve">
<style type="text/css">
	.st0{fill:#EB0A1E;}
</style>
<g>
	<path d="M12.1,5.8C11.7,2.6,9.4,1,7.1,1s-4.6,1.6-5,4.8C1.6,5.9,1.2,6.4,1.2,6.9v1.5c0,0.7,0.6,1.3,1.3,1.3H3
		c0.7,0,1.3-0.6,1.3-1.3V6.9c0-0.7-0.5-1.2-1.1-1.2C3.5,3.2,5.3,2,7.1,2s3.6,1.2,4,3.7c-0.7,0-1.2,0.6-1.2,1.2v1.5
		c0,0.5,0.4,1,0.8,1.2c-0.9,1.6-2.3,2.5-4,2.5c0-0.1-0.1-0.2-0.2-0.3L6,11.4c-0.3-0.3-0.8-0.2-1.1,0.1c-0.3,0.3-0.2,0.8,0.1,1.1
		L5.5,13c0.3,0.3,0.8,0.2,1-0.1l0,0l0,0c2.2,0,3.8-1.1,4.9-3.2h0.2c0.7,0,1.3-0.6,1.3-1.3V6.9C13,6.4,12.6,5.9,12.1,5.8z"/>
	<g>
		<g>
			<path class="st0" d="M16.6,8.7c0.2,0.1,0.3,0.2,0.4,0.4c0.1,0.2,0.1,0.3,0.1,0.5c0,0.2,0,0.3-0.1,0.5c-0.1,0.1-0.2,0.3-0.3,0.4
				c-0.1,0.1-0.3,0.2-0.5,0.3c-0.2,0.1-0.4,0.1-0.6,0.1c-0.2,0-0.4,0-0.6-0.1c-0.2-0.1-0.3-0.1-0.4-0.2c-0.1-0.1-0.2-0.2-0.3-0.4
				c-0.1-0.1-0.1-0.3-0.1-0.4c0-0.2,0-0.3,0.1-0.5c0.1-0.2,0.2-0.3,0.4-0.5c-0.1-0.1-0.2-0.2-0.3-0.4c-0.1-0.1-0.1-0.3-0.1-0.4
				c0-0.2,0-0.3,0.1-0.4c0.1-0.1,0.1-0.3,0.3-0.4S15,7,15.2,6.9c0.2-0.1,0.4-0.1,0.6-0.1c0.2,0,0.4,0,0.6,0.1
				C16.4,7,16.6,7,16.7,7.1c0.1,0.1,0.2,0.2,0.2,0.3C17,7.6,17,7.7,17,7.9c0,0.2,0,0.3-0.1,0.4C16.8,8.5,16.7,8.6,16.6,8.7z
				 M15.5,9.1c-0.1,0.1-0.1,0.1-0.2,0.2c-0.1,0.1-0.1,0.2-0.1,0.3c0,0.1,0,0.2,0.1,0.3s0.2,0.1,0.4,0.1c0.1,0,0.3,0,0.3-0.1
				c0.1-0.1,0.1-0.2,0.1-0.3c0-0.1,0-0.2-0.1-0.2s-0.1-0.1-0.2-0.1L15.5,9.1z M15.9,8.4c0-0.1,0.1-0.1,0.1-0.2C16,8.1,16,8,16,8
				c0-0.1,0-0.1-0.1-0.2c-0.1-0.1-0.1-0.1-0.3-0.1s-0.2,0-0.3,0.1c-0.1,0.1-0.1,0.1-0.1,0.2c0,0.1,0,0.1,0.1,0.2
				c0,0.1,0.1,0.1,0.2,0.1L15.9,8.4z"/>
			<path class="st0" d="M19,10.8c-0.2,0-0.5,0-0.7-0.1c-0.2-0.1-0.4-0.2-0.5-0.4s-0.2-0.4-0.3-0.6c-0.1-0.2-0.1-0.5-0.1-0.8
				c0-0.3,0-0.5,0.1-0.8s0.2-0.5,0.3-0.7s0.3-0.3,0.5-0.4c0.2-0.1,0.4-0.2,0.7-0.2c0.3,0,0.5,0,0.7,0.1c0.2,0.1,0.4,0.2,0.5,0.4
				c0.1,0.2,0.2,0.4,0.3,0.6c0.1,0.2,0.1,0.5,0.1,0.8c0,0.3,0,0.5-0.1,0.8c-0.1,0.2-0.2,0.5-0.3,0.6c-0.1,0.2-0.3,0.3-0.5,0.4
				S19.3,10.8,19,10.8z M19.1,9.9c0.1,0,0.2,0,0.3-0.1c0.1,0,0.1-0.1,0.2-0.2c0.1-0.1,0.1-0.2,0.1-0.3c0-0.1,0-0.3,0-0.5
				c0-0.4-0.1-0.6-0.2-0.8c-0.1-0.2-0.3-0.3-0.4-0.3c-0.1,0-0.2,0-0.3,0.1c-0.1,0.1-0.1,0.1-0.2,0.2c-0.1,0.1-0.1,0.2-0.1,0.3
				c0,0.1,0,0.3,0,0.4c0,0.3,0.1,0.6,0.2,0.8C18.7,9.8,18.9,9.9,19.1,9.9z"/>
			<path class="st0" d="M22.6,10.8c-0.2,0-0.5,0-0.7-0.1c-0.2-0.1-0.4-0.2-0.5-0.4s-0.2-0.4-0.3-0.6C21,9.4,21,9.1,21,8.9
				c0-0.3,0-0.5,0.1-0.8s0.2-0.5,0.3-0.7s0.3-0.3,0.5-0.4c0.2-0.1,0.4-0.2,0.7-0.2c0.3,0,0.5,0,0.7,0.1c0.2,0.1,0.4,0.2,0.5,0.4
				c0.1,0.2,0.2,0.4,0.3,0.6c0.1,0.2,0.1,0.5,0.1,0.8c0,0.3,0,0.5-0.1,0.8c-0.1,0.2-0.2,0.5-0.3,0.6c-0.1,0.2-0.3,0.3-0.5,0.4
				S22.8,10.8,22.6,10.8z M22.6,9.9c0.1,0,0.2,0,0.3-0.1c0.1,0,0.1-0.1,0.2-0.2c0.1-0.1,0.1-0.2,0.1-0.3c0-0.1,0-0.3,0-0.5
				c0-0.4-0.1-0.6-0.2-0.8c-0.1-0.2-0.3-0.3-0.4-0.3c-0.1,0-0.2,0-0.3,0.1c-0.1,0.1-0.1,0.1-0.2,0.2C22.1,8.1,22,8.2,22,8.4
				c0,0.1,0,0.3,0,0.4c0,0.3,0.1,0.6,0.2,0.8C22.2,9.8,22.4,9.9,22.6,9.9z"/>
			<path class="st0" d="M24.7,9.5V8.6h1.7v0.9H24.7z"/>
			<path class="st0" d="M27.1,10.7V9.8h0.7V8.1c0,0,0-0.1,0-0.1c0,0,0,0,0,0l-0.4,0.3l-0.5-0.7L27.7,7c0.1-0.1,0.2-0.1,0.3-0.2
				c0.1,0,0.2-0.1,0.3-0.1c0.2,0,0.3,0.1,0.4,0.2s0.2,0.3,0.2,0.5v2.4h0.7v0.9H27.1z"/>
			<path class="st0" d="M29.6,10.7l1.4-2.8c0,0,0-0.1,0-0.1c0,0,0,0,0,0c0,0,0-0.1-0.1-0.1h-1.4l0-0.9h2.1c0.2,0,0.3,0,0.4,0.1
				c0.1,0.1,0.2,0.2,0.2,0.3c0,0.1,0,0.2,0,0.2c0,0.1-0.1,0.2-0.1,0.3l-1.5,2.9H29.6z"/>
			<path class="st0" d="M32.7,9.5V8.6h1.7v0.9H32.7z"/>
			<path class="st0" d="M36,7.8l0,0.5c0.1,0,0.1,0,0.2-0.1c0.1,0,0.2,0,0.2,0c0.2,0,0.3,0,0.4,0.1s0.3,0.1,0.4,0.2
				c0.1,0.1,0.2,0.2,0.2,0.4s0.1,0.3,0.1,0.5c0,0.2,0,0.4-0.1,0.5c-0.1,0.2-0.2,0.3-0.3,0.4c-0.1,0.1-0.3,0.2-0.5,0.3
				c-0.2,0.1-0.4,0.1-0.7,0.1c-0.1,0-0.3,0-0.4,0c-0.1,0-0.2,0-0.4-0.1c-0.1,0-0.2-0.1-0.3-0.1c-0.1,0-0.2-0.1-0.2-0.1l0.2-0.9
				c0.2,0.1,0.4,0.2,0.6,0.2c0.2,0.1,0.3,0.1,0.4,0.1c0.2,0,0.3,0,0.4-0.1s0.1-0.2,0.1-0.3s0-0.2-0.1-0.3c-0.1-0.1-0.2-0.1-0.3-0.1
				c-0.1,0-0.1,0-0.2,0c-0.1,0-0.2,0.1-0.3,0.1l-0.5-0.3l0.1-2h2.2v0.9H36z"/>
			<path class="st0" d="M40.6,10.7h-2.1c-0.2,0-0.3-0.1-0.5-0.2c-0.1-0.1-0.2-0.3-0.2-0.4c0-0.1,0-0.2,0.1-0.3
				c0-0.1,0.1-0.2,0.2-0.3l1.2-1c0.1-0.1,0.1-0.1,0.2-0.2c0-0.1,0-0.1,0-0.2c0-0.1,0-0.2-0.1-0.2c-0.1-0.1-0.1-0.1-0.2-0.1
				c-0.1,0-0.1,0-0.2,0c-0.1,0-0.2,0.1-0.2,0.1c-0.1,0-0.2,0.1-0.2,0.1S38.4,8,38.3,8.1l-0.4-0.7c0.1-0.1,0.2-0.1,0.3-0.2
				C38.3,7.1,38.5,7,38.6,7s0.2-0.1,0.4-0.1c0.1,0,0.3,0,0.4,0c0.2,0,0.4,0,0.5,0.1C40,7,40.1,7,40.2,7.1s0.2,0.2,0.2,0.4
				c0,0.1,0.1,0.3,0.1,0.5c0,0.2,0,0.3-0.1,0.4s-0.1,0.2-0.2,0.3C40.2,8.8,40.1,8.9,40,9c-0.1,0.1-0.2,0.2-0.3,0.3l-0.5,0.5
				c0,0,0,0,0,0.1c0,0,0,0,0.1,0h1.3V10.7z"/>
			<path class="st0" d="M42.5,10.8c-0.2,0-0.5,0-0.7-0.1c-0.2-0.1-0.4-0.2-0.5-0.4c-0.1-0.2-0.2-0.4-0.3-0.6
				c-0.1-0.2-0.1-0.5-0.1-0.8c0-0.3,0-0.5,0.1-0.8s0.2-0.5,0.3-0.7s0.3-0.3,0.5-0.4s0.4-0.2,0.7-0.2c0.3,0,0.5,0,0.7,0.1
				c0.2,0.1,0.4,0.2,0.5,0.4S44,7.8,44,8c0.1,0.2,0.1,0.5,0.1,0.8c0,0.3,0,0.5-0.1,0.8c-0.1,0.2-0.2,0.5-0.3,0.6s-0.3,0.3-0.5,0.4
				C43,10.7,42.7,10.8,42.5,10.8z M42.5,9.9c0.1,0,0.2,0,0.3-0.1c0.1,0,0.1-0.1,0.2-0.2c0.1-0.1,0.1-0.2,0.1-0.3c0-0.1,0-0.3,0-0.5
				c0-0.4-0.1-0.6-0.2-0.8c-0.1-0.2-0.3-0.3-0.4-0.3c-0.1,0-0.2,0-0.3,0.1C42.2,7.9,42.1,7.9,42,8C42,8.1,42,8.2,41.9,8.4
				c0,0.1,0,0.3,0,0.4c0,0.3,0.1,0.6,0.2,0.8C42.1,9.8,42.3,9.9,42.5,9.9z"/>
			<path class="st0" d="M46,10.8c-0.2,0-0.5,0-0.7-0.1c-0.2-0.1-0.4-0.2-0.5-0.4c-0.1-0.2-0.2-0.4-0.3-0.6c-0.1-0.2-0.1-0.5-0.1-0.8
				c0-0.3,0-0.5,0.1-0.8s0.2-0.5,0.3-0.7s0.3-0.3,0.5-0.4s0.4-0.2,0.7-0.2c0.3,0,0.5,0,0.7,0.1c0.2,0.1,0.4,0.2,0.5,0.4
				s0.2,0.4,0.3,0.6c0.1,0.2,0.1,0.5,0.1,0.8c0,0.3,0,0.5-0.1,0.8c-0.1,0.2-0.2,0.5-0.3,0.6s-0.3,0.3-0.5,0.4
				C46.5,10.7,46.3,10.8,46,10.8z M46.1,9.9c0.1,0,0.2,0,0.3-0.1c0.1,0,0.1-0.1,0.2-0.2c0.1-0.1,0.1-0.2,0.1-0.3c0-0.1,0-0.3,0-0.5
				c0-0.4-0.1-0.6-0.2-0.8c-0.1-0.2-0.3-0.3-0.4-0.3c-0.1,0-0.2,0-0.3,0.1c-0.1,0.1-0.1,0.1-0.2,0.2c-0.1,0.1-0.1,0.2-0.1,0.3
				c0,0.1,0,0.3,0,0.4c0,0.3,0.1,0.6,0.2,0.8C45.7,9.8,45.8,9.9,46.1,9.9z"/>
		</g>
		<g>
			<path d="M15.1,5.8c-0.2-0.1-0.4-0.3-0.5-0.5c-0.1-0.2-0.2-0.5-0.2-0.8c0-0.3,0.1-0.6,0.2-0.8s0.3-0.4,0.5-0.5
				C15.4,3.1,15.6,3,15.9,3c0.3,0,0.6,0.1,0.9,0.3l-0.2,0.5c-0.2-0.2-0.5-0.3-0.7-0.3c-0.2,0-0.3,0-0.5,0.1S15.2,3.8,15.1,4
				S15,4.3,15,4.5c0,0.2,0,0.4,0.1,0.5s0.2,0.3,0.3,0.4c0.1,0.1,0.3,0.1,0.5,0.1c0.1,0,0.3,0,0.4-0.1s0.3-0.1,0.4-0.2l0.1,0.5
				c-0.1,0.1-0.3,0.2-0.4,0.2C16.2,6,16.1,6,15.9,6C15.6,6,15.3,5.9,15.1,5.8z"/>
			<path d="M17.7,5.8c-0.2-0.1-0.4-0.3-0.5-0.5C17.1,5.1,17,4.8,17,4.5c0-0.3,0.1-0.6,0.2-0.8s0.3-0.4,0.5-0.5S18.2,3,18.4,3
				c0.3,0,0.5,0.1,0.7,0.2c0.2,0.1,0.4,0.3,0.5,0.5c0.1,0.2,0.2,0.5,0.2,0.8S19.8,5,19.7,5.3c-0.1,0.2-0.3,0.4-0.5,0.5
				C18.9,5.9,18.7,6,18.4,6C18.2,6,17.9,5.9,17.7,5.8z M18.9,5.4C19,5.3,19.1,5.2,19.2,5s0.1-0.3,0.1-0.5s0-0.4-0.1-0.5
				S19,3.7,18.9,3.6c-0.1-0.1-0.3-0.1-0.5-0.1c-0.2,0-0.3,0-0.5,0.1c-0.1,0.1-0.2,0.2-0.3,0.3s-0.1,0.3-0.1,0.5s0,0.4,0.1,0.5
				s0.2,0.3,0.3,0.3s0.3,0.1,0.5,0.1C18.6,5.5,18.8,5.4,18.9,5.4z"/>
			<path d="M22.7,3V6h-0.5l-1.3-2.1V6h-0.5V3h0.5l1.3,2.1V3H22.7z"/>
			<path d="M25,3.5h-0.7V6h-0.5V3.5h-0.7V3H25V3.5z"/>
			<path d="M26.7,5.1h-1L25.5,6h-0.5l1-2.9h0.6l1,2.9H27L26.7,5.1z M26.5,4.7l-0.3-1.1l-0.3,1.1H26.5z"/>
			<path d="M28.3,5.8c-0.2-0.1-0.4-0.3-0.5-0.5c-0.1-0.2-0.2-0.5-0.2-0.8c0-0.3,0.1-0.6,0.2-0.8s0.3-0.4,0.5-0.5
				C28.6,3.1,28.8,3,29.1,3c0.3,0,0.6,0.1,0.9,0.3l-0.2,0.5c-0.2-0.2-0.5-0.3-0.7-0.3c-0.2,0-0.3,0-0.5,0.1
				c-0.1,0.1-0.2,0.2-0.3,0.3c-0.1,0.1-0.1,0.3-0.1,0.5c0,0.2,0,0.4,0.1,0.5s0.2,0.3,0.3,0.4c0.1,0.1,0.3,0.1,0.5,0.1
				c0.1,0,0.3,0,0.4-0.1c0.1-0.1,0.2-0.1,0.4-0.2L30,5.7c-0.1,0.1-0.3,0.2-0.4,0.2S29.3,6,29.1,6C28.8,6,28.6,5.9,28.3,5.8z"/>
			<path d="M32.1,3.5h-0.7V6h-0.5V3.5h-0.7V3h2V3.5z"/>
			<path d="M33.9,5.8c-0.2-0.1-0.4-0.3-0.5-0.5c-0.1-0.2-0.2-0.5-0.2-0.8c0-0.3,0.1-0.6,0.2-0.8s0.3-0.4,0.5-0.5
				C34.1,3.1,34.3,3,34.6,3c0.3,0,0.6,0.1,0.9,0.3l-0.2,0.5c-0.2-0.2-0.5-0.3-0.7-0.3c-0.2,0-0.3,0-0.5,0.1C34,3.7,33.9,3.8,33.8,4
				c-0.1,0.1-0.1,0.3-0.1,0.5c0,0.2,0,0.4,0.1,0.5s0.2,0.3,0.3,0.4c0.1,0.1,0.3,0.1,0.5,0.1c0.1,0,0.3,0,0.4-0.1
				c0.1-0.1,0.2-0.1,0.4-0.2l0.1,0.5c-0.1,0.1-0.3,0.2-0.4,0.2S34.8,6,34.6,6C34.3,6,34.1,5.9,33.9,5.8z"/>
			<path d="M36,3h1.6v0.5h-1.1v0.7h1.1v0.5h-1.1v0.7h1.1V6H36V3z"/>
			<path d="M40.5,3V6H40l-1.3-2.1V6h-0.5V3h0.5L40,5.1V3H40.5z"/>
			<path d="M42.9,3.5h-0.7V6h-0.5V3.5h-0.7V3h2V3.5z"/>
			<path d="M43.3,3h1.6v0.5h-1.1v0.7h1.1v0.5h-1.1v0.7h1.1V6h-1.7V3z"/>
			<path d="M46.4,4.8H46V6h-0.5V3h0.9c0.2,0,0.4,0,0.5,0.1c0.1,0.1,0.2,0.2,0.3,0.3c0.1,0.1,0.1,0.3,0.1,0.4c0,0.2,0,0.3-0.1,0.5
				c-0.1,0.1-0.2,0.3-0.4,0.3L47.6,6H47L46.4,4.8z M46,4.4h0.4c0.1,0,0.2,0,0.3-0.1c0.1-0.1,0.1-0.2,0.1-0.3c0-0.1,0-0.3-0.1-0.3
				c-0.1-0.1-0.2-0.1-0.3-0.1H46V4.4z"/>
		</g>
	</g>
</g>
</svg>
