<?xml version="1.0" encoding="utf-8"?>
<!-- Generator: Adobe Illustrator 25.3.1, SVG Export Plug-In . SVG Version: 6.00 Build 0)  -->
<svg version="1.1" id="Layer_1" xmlns="http://www.w3.org/2000/svg" xmlns:xlink="http://www.w3.org/1999/xlink" x="0px" y="0px"
	 viewBox="0 0 315.1 153" style="enable-background:new 0 0 315.1 153;" xml:space="preserve">
<style type="text/css">
	.st0{fill:#D60024;}
	.st1{fill:#030402;}
</style>
<g>
	<g>
		<path d="M118.7,73.8c0.6,0,1.1-0.2,1.8-0.6c0.6-0.4,1.1-0.9,1.5-1.5l2.5-4.2c0.2-0.3,0.3-0.5,0.3-0.6c0.2-0.4,0.2-0.8,0-1.1
			c-0.2-0.3-0.5-0.4-0.9-0.4h-8.6c-0.9,0-1.5-0.3-1.9-0.9c-0.4-0.6-0.4-1.3,0-2.2c0.1-0.2,0.3-0.6,0.6-1.1l5.1-8.4
			c0.7-1.1,1.7-2.1,3-2.9c1.3-0.8,2.5-1.2,3.5-1.2H142l-2.6,4.2h-12.6c-0.6,0-1.1,0.2-1.8,0.6c-0.6,0.4-1.1,0.9-1.5,1.5l-2.6,4.2
			c-0.1,0.2-0.2,0.4-0.3,0.5c-0.2,0.4-0.2,0.8,0,1.1c0.2,0.3,0.5,0.4,1,0.4h8.6c0.9,0,1.5,0.3,1.9,0.9c0.3,0.6,0.4,1.3,0,2.2
			c-0.1,0.2-0.3,0.6-0.6,1.1l-5.2,8.4c-0.7,1.1-1.7,2.1-3,2.9c-1.3,0.8-2.5,1.2-3.5,1.2h-16.5l2.6-4.2H118.7z"/>
		<path d="M128,77.1c-0.3-0.6-0.4-1.3,0-2.2c0.1-0.2,0.3-0.6,0.6-1.1l7.7-12.5c0.7-1.1,1.7-2.1,2.9-2.9c1.3-0.8,2.5-1.2,3.5-1.2
			h12.6c0.9,0,1.5,0.3,1.9,0.9c0.3,0.6,0.4,1.3,0,2.3c-0.1,0.3-0.3,0.7-0.5,1l-2.6,4.2c-0.7,1.1-1.7,2.1-3,2.9
			c-1.3,0.8-2.5,1.2-3.5,1.2H137l-1.3,2.1c-0.2,0.3-0.3,0.5-0.3,0.6c-0.2,0.4-0.2,0.8,0,1.1c0.2,0.3,0.5,0.4,0.9,0.4H149l-2.6,4.2
			h-16.5C129,78,128.4,77.7,128,77.1z M148.4,64.6c0.7-0.5,1.2-1.2,1.5-1.9c0.2-0.4,0.2-0.8,0-1.1c-0.2-0.3-0.5-0.4-0.9-0.4h-4.7
			c-0.6,0-1.1,0.2-1.8,0.6c-0.6,0.4-1.1,0.9-1.5,1.5l-1.3,2.1h6.7C146.9,65.4,147.6,65.2,148.4,64.6z"/>
		<path d="M161.6,58.3c1.3-0.8,2.5-1.2,3.5-1.2h16.5l-2.5,4.2h-12.6c-0.6,0-1.1,0.2-1.8,0.6c-0.6,0.4-1.1,0.9-1.5,1.5l-9,14.6h-5.9
			l10.3-16.7C159.4,60.1,160.4,59.1,161.6,58.3z"/>
		<path d="M176.1,77.2c-0.4-0.5-0.6-1.3-0.4-2.2l1.2-5.9c0.1-0.5,0.3-0.9,0.4-1.2c0.3-0.7,0.6-1.4,1.1-2.1l5.3-8.7h5.9l-5.9,9.6
			c-0.3,0.5-0.5,1-0.7,1.7l-0.7,3.8c-0.1,0.5-0.1,0.9,0.2,1.2c0.2,0.3,0.6,0.4,1.1,0.4h2.4c0.6,0,1.1-0.2,1.8-0.6
			c0.6-0.4,1.1-0.9,1.5-1.5l9-14.6h5.9l-10.3,16.7c-0.7,1.1-1.7,2.1-3,2.9c-1.3,0.8-2.5,1.2-3.5,1.2h-9.1
			C177.2,78,176.6,77.7,176.1,77.2z"/>
		<path d="M206,57.1h5.9L199.1,78h-5.9L206,57.1z"/>
		<path d="M203.1,77.1c-0.4-0.6-0.4-1.3,0-2.2c0.1-0.2,0.3-0.6,0.6-1.1l7.7-12.5c0.7-1.1,1.7-2.1,2.9-2.9c1.3-0.8,2.5-1.2,3.5-1.2
			h16.5l-2.5,4.2h-12.6c-0.6,0-1.1,0.2-1.8,0.6c-0.6,0.4-1.1,0.9-1.5,1.5l-5.1,8.4c-0.2,0.3-0.3,0.5-0.3,0.6c-0.2,0.4-0.2,0.8,0,1.1
			c0.2,0.3,0.5,0.4,0.9,0.4H224l-2.6,4.2H205C204.1,78,203.4,77.7,203.1,77.1z"/>
		<path d="M236.3,57.1h5.9L229.3,78h-5.9L236.3,57.1z"/>
		<path d="M233.3,77.1c-0.3-0.6-0.4-1.3,0-2.2c0.1-0.2,0.3-0.6,0.6-1.1l7.7-12.5c0.7-1.1,1.7-2.1,2.9-2.9c1.3-0.8,2.5-1.2,3.5-1.2
			h12.6c0.9,0,1.5,0.3,1.9,0.9c0.3,0.6,0.4,1.3,0,2.3c-0.1,0.3-0.3,0.7-0.5,1l-7.7,12.5c-0.7,1.1-1.7,2.1-3,2.9
			c-1.3,0.8-2.5,1.2-3.5,1.2h-12.6C234.3,78,233.7,77.7,233.3,77.1z M248.2,73.2c0.6-0.4,1.1-0.9,1.5-1.5l5.1-8.4
			c0.2-0.3,0.3-0.5,0.3-0.6c0.2-0.4,0.2-0.8,0-1.1c-0.2-0.3-0.5-0.4-0.9-0.4h-4.7c-0.6,0-1.1,0.2-1.8,0.6c-0.6,0.4-1.1,0.9-1.5,1.5
			l-5.1,8.4c-0.2,0.3-0.3,0.5-0.3,0.6c-0.2,0.4-0.2,0.8,0,1.1c0.2,0.3,0.5,0.4,0.9,0.4h4.7C247,73.8,247.6,73.6,248.2,73.2z"/>
	</g>
	<g>
		<path class="st0" d="M126.3,85.5H119l2.6-4.2H142l-2.6,4.2h-7.3l-15.5,25.1h-5.9L126.3,85.5z"/>
		<path class="st0" d="M128,109.7c-0.3-0.6-0.4-1.3,0-2.2c0.1-0.2,0.3-0.6,0.6-1.1l7.7-12.5c0.7-1.1,1.7-2.1,2.9-2.9
			c1.3-0.8,2.5-1.2,3.5-1.2h12.6c0.9,0,1.5,0.3,1.9,0.9c0.3,0.6,0.4,1.3,0,2.3c-0.1,0.3-0.3,0.7-0.5,1l-2.6,4.2
			c-0.7,1.1-1.7,2.1-3,2.9c-1.3,0.8-2.5,1.2-3.5,1.2H137l-1.3,2.1c-0.2,0.3-0.3,0.5-0.3,0.6c-0.2,0.4-0.2,0.8,0,1.1
			c0.2,0.3,0.5,0.4,0.9,0.4H149l-2.6,4.2h-16.5C129,110.6,128.4,110.3,128,109.7z M148.4,97.2c0.7-0.5,1.2-1.2,1.5-1.9
			c0.2-0.4,0.2-0.8,0-1.1c-0.2-0.3-0.5-0.4-0.9-0.4h-4.7c-0.6,0-1.1,0.2-1.8,0.6c-0.6,0.4-1.1,0.9-1.5,1.5l-1.3,2.1h6.7
			C146.9,98,147.6,97.7,148.4,97.2z M157.1,83.6h5.9l-10.4,5h-5.9L157.1,83.6z"/>
		<path class="st0" d="M150.4,109.7c-0.3-0.6-0.4-1.3,0-2.2c0.1-0.2,0.3-0.6,0.6-1.1l7.7-12.5c0.7-1.1,1.7-2.1,2.9-2.9
			c1.3-0.8,2.5-1.2,3.5-1.2h16.5l-2.5,4.2h-12.6c-0.6,0-1.1,0.2-1.8,0.6c-0.6,0.4-1.1,0.9-1.5,1.5l-5.1,8.4
			c-0.2,0.3-0.3,0.5-0.3,0.6c-0.2,0.4-0.2,0.8,0,1.1c0.2,0.3,0.5,0.4,0.9,0.4h12.6l-2.6,4.2h-16.5
			C151.4,110.6,150.8,110.3,150.4,109.7z"/>
		<path class="st0" d="M184,90.9c1.3-0.8,2.5-1.2,3.5-1.2h12.6c0.9,0,1.5,0.3,1.9,0.9c0.3,0.6,0.4,1.3,0,2.3c-0.1,0.3-0.3,0.7-0.5,1
			l-10.3,16.7h-5.9l9-14.6c0.2-0.3,0.3-0.5,0.3-0.6c0.2-0.4,0.2-0.8,0-1.1c-0.2-0.3-0.5-0.4-0.9-0.4H189c-0.6,0-1.1,0.2-1.8,0.6
			c-0.6,0.4-1.1,0.9-1.5,1.5l-9,14.6h-5.9l10.3-16.7C181.8,92.7,182.8,91.7,184,90.9z"/>
		<path class="st0" d="M206,89.6h5.9l-12.9,20.9h-5.9L206,89.6z"/>
		<path class="st0" d="M203.1,109.7c-0.4-0.6-0.4-1.3,0-2.2c0.1-0.2,0.3-0.6,0.6-1.1l7.7-12.5c0.7-1.1,1.7-2.1,2.9-2.9
			c1.3-0.8,2.5-1.2,3.5-1.2h16.5l-2.5,4.2h-12.6c-0.6,0-1.1,0.2-1.8,0.6c-0.6,0.4-1.1,0.9-1.5,1.5l-5.1,8.4
			c-0.2,0.3-0.3,0.5-0.3,0.6c-0.2,0.4-0.2,0.8,0,1.1c0.2,0.3,0.5,0.4,0.9,0.4H224l-2.6,4.2H205C204.1,110.6,203.4,110.3,203.1,109.7
			z"/>
		<path class="st0" d="M225.5,109.7c-0.3-0.6-0.4-1.3,0-2.2c0.1-0.2,0.3-0.6,0.6-1.1l7.7-12.5c0.7-1.1,1.7-2.1,2.9-2.9
			c1.3-0.8,2.5-1.2,3.5-1.2h12.6c0.9,0,1.5,0.3,1.9,0.9c0.3,0.6,0.4,1.3,0,2.3c-0.1,0.3-0.3,0.7-0.5,1l-7.7,12.5
			c-0.7,1.1-1.7,2.1-3,2.9c-1.3,0.8-2.5,1.2-3.5,1.2h-12.6C226.5,110.6,225.8,110.3,225.5,109.7z M240.4,105.8
			c0.6-0.4,1.1-0.9,1.5-1.5l5.1-8.4c0.2-0.3,0.3-0.5,0.3-0.6c0.2-0.4,0.2-0.8,0-1.1c-0.2-0.3-0.5-0.4-0.9-0.4h-4.7
			c-0.6,0-1.1,0.2-1.8,0.6c-0.6,0.4-1.1,0.9-1.5,1.5l-5.1,8.4c-0.2,0.3-0.3,0.5-0.3,0.6c-0.2,0.4-0.2,0.8,0,1.1
			c0.2,0.3,0.5,0.4,0.9,0.4h4.7C239.1,106.4,239.7,106.2,240.4,105.8z"/>
	</g>
	<g>
		<path d="M83.1,42.5c1.3,0.2,2.6,0.3,3.8,0.6c5,1.1,8,4.4,8.9,9.4c0.7,3.5,0.9,7.1,0.5,10.7c-0.8,7.4-4.7,12.7-11.7,15.5
			c-2.7,1.1-5.3,0.7-7.8-0.5c-5.9-2.9-9.4-7.6-10.3-14.2c-0.6-4.5-0.5-9.1,0.9-13.5c1.2-4,4.1-6.4,8.1-7.4c1.3-0.3,2.7-0.5,4.1-0.7
			C80.8,42.5,81.9,42.5,83.1,42.5z M68.5,58.4c-0.1,0-0.1,0-0.2,0c0.1,1.9,0.1,3.8,0.4,5.7c0.8,5.2,3.6,9.1,8.1,11.6
			c2.7,1.5,5.3,1.8,8.2,0.4c7.1-3.5,9.8-10.3,9.1-17.8c-0.4,0.4-0.7,0.8-1.1,1.2c-0.6,0.6-1.1,0.6-1.8,0.1c-0.7-0.5-1.3-1.1-1.9-1.6
			c-4.1-3.3-10.5-3.6-14.9-0.8c-1.1,0.7-2.1,1.6-3.1,2.4c-0.6,0.5-1.1,0.5-1.7-0.1C69.3,59.3,68.9,58.8,68.5,58.4z M86.3,49.3
			c-3.3-1.1-6.6-1.1-9.8,0c0.3,0.8,0.6,1.5,0.9,2.3c0.1,0.4,0.3,0.4,0.7,0.3c0.9-0.2,1.8-0.5,2.7-0.4c1.3,0,2.6,0.3,4,0.4
			c0.2,0,0.5-0.1,0.6-0.2C85.7,50.9,85.9,50.1,86.3,49.3z"/>
		<path d="M54.5,101.6c-0.3,0-0.6-0.1-0.8-0.3c-1.2-1.4-1.6-2.8-1.2-4.5c0.8-3.4,1.5-6.2,2.9-9c1-1.9,2.2-3.3,3.8-4.1
			c4.2-2.3,8.4-4.7,12-6.7c0.9-0.5,1.9-0.5,2.7,0.2c1.5,1.1,3.1,1.9,4.7,2.3c0.9,0.2,1.5,0.8,1.9,1.7c0.3,0.8,0.6,1.6,0.9,2.3
			c0.3-0.7,0.6-1.5,0.8-2.3c0.4-1,1-1.6,2-1.9c1.6-0.4,3.1-1.1,4.4-2.1c1-0.8,2-0.8,3.1-0.2c3.6,2,7.5,4.2,11.5,6.4
			c2,1.1,3.5,2.8,4.7,5.4c1.1,2.5,1.9,5.3,2.5,9.1c0.1,0.9-0.3,1.7-0.6,2.2c-0.3,0.5-0.9,0.7-1.4,0.4c-0.5-0.3-0.7-0.9-0.4-1.4
			c0.2-0.4,0.3-0.7,0.3-0.8c-0.6-3.5-1.3-6.2-2.3-8.5c-1-2.2-2.1-3.5-3.7-4.4c-4-2.2-7.9-4.4-11.5-6.4c-0.4-0.2-0.5-0.2-0.8,0
			c-1.6,1.2-3.3,2.1-5.2,2.5c-0.3,0.1-0.4,0.2-0.5,0.5c-0.4,1.1-0.8,2.2-1.3,3.3c-0.2,0.4-0.3,0.9-0.5,1.3c-0.2,0.4-0.5,0.7-1,0.7
			c0,0,0,0,0,0l-0.1,0c-0.4,0-0.8-0.3-1-0.7c-0.2-0.4-0.3-0.9-0.5-1.3c-0.4-1.1-0.9-2.3-1.3-3.4c-0.1-0.4-0.3-0.4-0.4-0.4
			c-1.9-0.5-3.8-1.3-5.5-2.7c-0.2-0.1-0.2-0.1-0.4,0c-3.6,2-7.8,4.4-12,6.7c-1.2,0.7-2.1,1.7-2.9,3.2c-1.4,2.8-2.1,5.8-2.7,8.5
			c-0.2,1,0,1.7,0.7,2.6c0.4,0.4,0.4,1.1-0.1,1.5C55,101.5,54.7,101.6,54.5,101.6z"/>
		<path d="M61.3,99.4c-1,0-2,0-3,0c-0.3,0-0.7-0.1-0.9-0.3c-0.1-0.1,0.1-0.6,0.2-0.8c1.6-2.5,4-3.8,7-3.8c3.1,0.1,5.4,1.6,6.9,4.3
			c0.3,0.5,0.6,0.7,1.2,0.7c5.7,0,11.5,0,17.2,0c0.6,0,1-0.2,1.3-0.8c2.8-5.4,10.5-5.8,13.8-0.7c0.2,0.3,0.2,0.7,0.3,1
			c-0.3,0.1-0.6,0.2-0.9,0.2c-1.9,0-3.9,0-5.8,0c-0.7,0-1,0.2-1,0.8c0,1.6,0,3.1,0,4.7c0,0.6,0.3,0.8,0.9,0.8c2,0,4,0,5.9,0
			c0.3,0,0.7,0.1,0.9,0.3c0.1,0.1-0.1,0.6-0.2,0.8c-1.7,2.5-4,3.9-7.1,3.7c-3.1-0.1-5.4-1.6-6.8-4.3c-0.3-0.5-0.6-0.8-1.2-0.8
			c-5.7,0-11.5,0-17.2,0c-0.6,0-1,0.2-1.3,0.8c-1.5,2.8-3.8,4.2-6.9,4.3c-3,0.1-5.3-1.2-6.9-3.7c-0.2-0.2-0.3-0.7-0.2-0.9
			c0.1-0.2,0.6-0.3,0.9-0.3c1.9,0,3.9,0,5.8,0c0.7,0,1-0.2,1-0.8c0-1.6,0-3.2,0-4.8c0-0.5-0.3-0.7-0.8-0.7
			C63.3,99.4,62.3,99.4,61.3,99.4C61.3,99.4,61.3,99.4,61.3,99.4z"/>
	</g>
</g>
</svg>
